<?xml version="1.0" encoding="UTF-8" standalone="no"?>
<svg
   xmlns:dc="http://purl.org/dc/elements/1.1/"
   xmlns:cc="http://creativecommons.org/ns#"
   xmlns:rdf="http://www.w3.org/1999/02/22-rdf-syntax-ns#"
   xmlns:svg="http://www.w3.org/2000/svg"
   xmlns="http://www.w3.org/2000/svg"
   xmlns:sodipodi="http://sodipodi.sourceforge.net/DTD/sodipodi-0.dtd"
   xmlns:inkscape="http://www.inkscape.org/namespaces/inkscape"
   version="1.1"
   width="910"
   height="699"
   id="svg2"
   inkscape:version="0.48.4 r9939"
   sodipodi:docname="EERIT1.pdf">
  <metadata
     id="metadata798">
    <rdf:RDF>
      <cc:Work
         rdf:about="">
        <dc:format>image/svg+xml</dc:format>
        <dc:type
           rdf:resource="http://purl.org/dc/dcmitype/StillImage" />
        <dc:title></dc:title>
      </cc:Work>
    </rdf:RDF>
  </metadata>
  <sodipodi:namedview
     pagecolor="#ffffff"
     bordercolor="#666666"
     borderopacity="1"
     objecttolerance="10"
     gridtolerance="10"
     guidetolerance="10"
     inkscape:pageopacity="0"
     inkscape:pageshadow="2"
     inkscape:window-width="1920"
     inkscape:window-height="1003"
     id="namedview796"
     showgrid="false"
     inkscape:zoom="1.3505007"
     inkscape:cx="404.51212"
     inkscape:cy="274.6011"
     inkscape:window-x="-9"
     inkscape:window-y="-9"
     inkscape:window-maximized="1"
     inkscape:current-layer="g6" />
  <defs
     id="defs4" />
  <g
     transform="translate(0,0)"
     id="g6">
    <g
       id="g8">
      <rect
         fill="#FFFFFF"
         stroke="none"
         x="0"
         y="0"
         width="910"
         height="699"
         id="rect10" />
    </g>
    <g
       transform="translate(0.5,0.5) matrix(1,0,0,1,160,322)"
       id="g12">
      <g
         id="g14">
        <g
           transform="translate(0,0) scale(1.2,0.5)"
           id="g16">
          <g
             id="g18">
            <path
               fill="#FFFFFF"
               stroke="none"
               d="M 0 0 L 100 0 Q 100 0 100 0 L 100 100 Q 100 100 100 100 L 0 100 Q 0 100 0 100 L 0 0 Q 0 0 0 0 Z"
               id="path20" />
            <g
               transform="scale(0.8333333333333334,2)"
               id="g22">
              <path
                 fill="none"
                 stroke="#000000"
                 d="M 0 0 L 120 0 Q 120 0 120 0 L 120 50 Q 120 50 120 50 L 0 50 Q 0 50 0 50 L 0 0 Q 0 0 0 0 Z"
                 stroke-miterlimit="10"
                 id="path24" />
            </g>
          </g>
          <g
             id="g26">
            <g
               transform="scale(0.8333333333333334,2)"
               id="g28">
              <path
                 fill="rgba(0,0,0,0)"
                 stroke="none"
                 d="M 2.4 1 L 2.4 48.5 L 116.39999999999999 48.5 L 116.39999999999999 1.5 L 3.5999999999999996 1.5 Z"
                 opacity="0"
                 id="path30" />
              <path
                 fill="none"
                 stroke="#3C7626"
                 d="M 2.4 1 M 2.4 1 L 2.4 5 M 2.4 5 M 2.4 7 L 2.4 11 M 2.4 11 M 2.4 13 L 2.4 17 M 2.4 17 M 2.4 19 L 2.4 23 M 2.4 23 M 2.4 25 L 2.4 29 M 2.4 29 M 2.4 31 L 2.4 35 M 2.4 35 M 2.4 37 L 2.4 41 M 2.4 41 M 2.4 43 L 2.4 47 M 2.4 47 M 2.9 48.5 L 6.9 48.5 M 6.9 48.5 M 8.9 48.5 L 12.9 48.5 M 12.9 48.5 M 14.9 48.5 L 18.9 48.5 M 18.9 48.5 M 20.9 48.5 L 24.9 48.5 M 24.9 48.5 M 26.9 48.5 L 30.9 48.5 M 30.9 48.5 M 32.9 48.5 L 36.9 48.5 M 36.9 48.5 M 38.9 48.5 L 42.9 48.5 M 42.9 48.5 M 44.9 48.5 L 48.9 48.5 M 48.9 48.5 M 50.9 48.5 L 54.9 48.5 M 54.9 48.5 M 56.9 48.5 L 60.9 48.5 M 60.9 48.5 M 62.9 48.5 L 66.9 48.5 M 66.9 48.5 M 68.9 48.5 L 72.9 48.5 M 72.9 48.5 M 74.9 48.5 L 78.9 48.5 M 78.9 48.5 M 80.9 48.5 L 84.9 48.5 M 84.9 48.5 M 86.9 48.5 L 90.9 48.5 M 90.9 48.5 M 92.9 48.5 L 96.9 48.5 M 96.9 48.5 M 98.9 48.5 L 102.9 48.5 M 102.9 48.5 M 104.9 48.5 L 108.9 48.5 M 108.9 48.5 M 110.9 48.5 L 114.9 48.5 M 114.9 48.5 M 116.39999999999999 47.999999999999986 L 116.39999999999999 43.999999999999986 M 116.39999999999999 43.999999999999986 M 116.39999999999999 41.999999999999986 L 116.39999999999999 37.999999999999986 M 116.39999999999999 37.999999999999986 M 116.39999999999999 35.999999999999986 L 116.39999999999999 31.999999999999986 M 116.39999999999999 31.999999999999986 M 116.39999999999999 29.999999999999986 L 116.39999999999999 25.999999999999986 M 116.39999999999999 25.999999999999986 M 116.39999999999999 23.999999999999986 L 116.39999999999999 19.999999999999986 M 116.39999999999999 19.999999999999986 M 116.39999999999999 17.999999999999986 L 116.39999999999999 13.999999999999986 M 116.39999999999999 13.999999999999986 M 116.39999999999999 11.999999999999986 L 116.39999999999999 7.999999999999986 M 116.39999999999999 7.999999999999986 M 116.39999999999999 5.999999999999986 L 116.39999999999999 1.9999999999999858 M 116.39999999999999 1.9999999999999858 M 114.89999999999998 1.5 L 110.89999999999998 1.5 M 110.89999999999998 1.5 M 108.89999999999998 1.5 L 104.89999999999998 1.5 M 104.89999999999998 1.5 M 102.89999999999998 1.5 L 98.89999999999998 1.5 M 98.89999999999998 1.5 M 96.89999999999998 1.5 L 92.89999999999998 1.5 M 92.89999999999998 1.5 M 90.89999999999998 1.5 L 86.89999999999998 1.5 M 86.89999999999998 1.5 M 84.89999999999998 1.5 L 80.89999999999998 1.5 M 80.89999999999998 1.5 M 78.89999999999998 1.5 L 74.89999999999998 1.5 M 74.89999999999998 1.5 M 72.89999999999998 1.5 L 68.89999999999998 1.5 M 68.89999999999998 1.5 M 66.89999999999998 1.5 L 62.89999999999998 1.5 M 62.89999999999998 1.5 M 60.89999999999998 1.5 L 56.89999999999998 1.5 M 56.89999999999998 1.5 M 54.89999999999998 1.5 L 50.89999999999998 1.5 M 50.89999999999998 1.5 M 48.89999999999998 1.5 L 44.89999999999998 1.5 M 44.89999999999998 1.5 M 42.89999999999998 1.5 L 38.89999999999998 1.5 M 38.89999999999998 1.5 M 36.89999999999998 1.5 L 32.89999999999998 1.5 M 32.89999999999998 1.5 M 30.899999999999977 1.5 L 26.899999999999977 1.5 M 26.899999999999977 1.5 M 24.899999999999977 1.5 L 20.899999999999977 1.5 M 20.899999999999977 1.5 M 18.899999999999977 1.5 L 14.899999999999977 1.5 M 14.899999999999977 1.5 M 12.899999999999977 1.5 L 8.899999999999977 1.5 M 8.899999999999977 1.5 M 6.899999999999977 1.5 L 3.5999999999999996 1.5 Z"
                 stroke-miterlimit="10"
                 opacity="0"
                 id="path32" />
            </g>
          </g>
        </g>
      </g>
    </g>
    <g
       transform="scale(1,1) matrix(1,0,0,1,162,322) translate(2,18)"
       id="g34">
      <text
         fill="#000000"
         stroke="none"
         font-family="Arial"
         font-size="12px"
         font-style="normal"
         font-weight="normal"
         text-decoration="none"
         x="42.5"
         y="11"
         id="text36">User</text>
    </g>
    <g
       transform="translate(0.5,0.5) matrix(1,0,0,1,380.5,312)"
       id="g38">
      <g
         id="g40">
        <g
           transform="translate(0,0) scale(1.15,0.58)"
           id="g42">
          <g
             id="g44">
            <path
               fill="#FFFFFF"
               stroke="none"
               d="M 100 50 A 50 50 0 1 0 99.99997500000208 50.04999999166668 Z"
               id="path46" />
            <g
               transform="scale(0.8695652173913044,1.7241379310344829)"
               id="g48">
              <path
                 fill="none"
                 stroke="#000000"
                 d="M 57.49999999999999 0 C 89.25637024999999 0 114.99999999999999 12.983743699999998 114.99999999999999 28.999999999999996 C 114.99999999999999 45.016256299999995 89.25637024999999 57.99999999999999 57.49999999999999 57.99999999999999 C 25.74362975 57.99999999999999 0 45.016256299999995 0 28.999999999999996 C 0 12.983743699999998 25.74362975 0 57.49999999999999 0 Z"
                 stroke-miterlimit="10"
                 id="path50" />
            </g>
          </g>
        </g>
      </g>
    </g>
    <g
       transform="scale(1,1) matrix(1,0,0,1,382.5,312) translate(2,22)"
       id="g52">
      <text
         fill="#000000"
         stroke="none"
         font-family="Arial"
         font-size="12px"
         font-style="normal"
         font-weight="normal"
         text-decoration="none"
         x="24"
         y="11"
         id="text54">Username</text>
    </g>
    <g
       transform="translate(0.5,0.5) matrix(1,0,0,1,20,402)"
       id="g56">
      <g
         id="g58">
        <g
           transform="translate(0,0) scale(1.15,0.58)"
           id="g60">
          <g
             id="g62">
            <path
               fill="#FFFFFF"
               stroke="none"
               d="M 100 50 A 50 50 0 1 0 99.99997500000208 50.04999999166668 Z"
               id="path64" />
            <g
               transform="scale(0.8695652173913044,1.7241379310344829)"
               id="g66">
              <path
                 fill="none"
                 stroke="#000000"
                 d="M 57.49999999999999 0 C 89.25637024999999 0 114.99999999999999 12.983743699999998 114.99999999999999 28.999999999999996 C 114.99999999999999 45.016256299999995 89.25637024999999 57.99999999999999 57.49999999999999 57.99999999999999 C 25.74362975 57.99999999999999 0 45.016256299999995 0 28.999999999999996 C 0 12.983743699999998 25.74362975 0 57.49999999999999 0 Z"
                 stroke-miterlimit="10"
                 id="path68" />
            </g>
          </g>
        </g>
      </g>
    </g>
    <g
       transform="scale(1,1) matrix(1,0,0,1,22,402) translate(2,22)"
       id="g70">
      <text
         fill="#000000"
         stroke="none"
         font-family="Arial"
         font-size="12px"
         font-style="normal"
         font-weight="normal"
         text-decoration="none"
         x="34"
         y="11"
         id="text72">UserID</text>
    </g>
    <g
       transform="translate(0.5,0.5) matrix(1,0,0,1,293,402)"
       id="g74">
      <g
         id="g76">
        <g
           transform="translate(0,0) scale(1.15,0.58)"
           id="g78">
          <g
             id="g80">
            <path
               fill="#FFFFFF"
               stroke="none"
               d="M 100 50 A 50 50 0 1 0 99.99997500000208 50.04999999166668 Z"
               id="path82" />
            <g
               transform="scale(0.8695652173913044,1.7241379310344829)"
               id="g84">
              <path
                 fill="none"
                 stroke="#000000"
                 d="M 57.49999999999999 0 C 89.25637024999999 0 114.99999999999999 12.983743699999998 114.99999999999999 28.999999999999996 C 114.99999999999999 45.016256299999995 89.25637024999999 57.99999999999999 57.49999999999999 57.99999999999999 C 25.74362975 57.99999999999999 0 45.016256299999995 0 28.999999999999996 C 0 12.983743699999998 25.74362975 0 57.49999999999999 0 Z"
                 stroke-miterlimit="10"
                 id="path86" />
            </g>
          </g>
        </g>
      </g>
    </g>
    <g
       transform="scale(1,1) matrix(1,0,0,1,295,402) translate(2,22)"
       id="g88">
      <text
         fill="#000000"
         stroke="none"
         font-family="Arial"
         font-size="12px"
         font-style="normal"
         font-weight="normal"
         text-decoration="none"
         x="25.5"
         y="11"
         id="text90">Password</text>
    </g>
    <g
       transform="translate(0.5,0.5) matrix(1,0,0,1,20,230)"
       id="g92">
      <g
         id="g94">
        <g
           transform="translate(0,0) scale(1.15,0.58)"
           id="g96">
          <g
             id="g98">
            <path
               fill="#FFFFFF"
               stroke="none"
               d="M 100 50 A 50 50 0 1 0 99.99997500000208 50.04999999166668 Z"
               id="path100" />
            <g
               transform="scale(0.8695652173913044,1.7241379310344829)"
               id="g102">
              <path
                 fill="none"
                 stroke="#000000"
                 d="M 57.49999999999999 0 C 89.25637024999999 0 114.99999999999999 12.983743699999998 114.99999999999999 28.999999999999996 C 114.99999999999999 45.016256299999995 89.25637024999999 57.99999999999999 57.49999999999999 57.99999999999999 C 25.74362975 57.99999999999999 0 45.016256299999995 0 28.999999999999996 C 0 12.983743699999998 25.74362975 0 57.49999999999999 0 Z"
                 stroke-miterlimit="10"
                 id="path104" />
            </g>
          </g>
        </g>
      </g>
    </g>
    <g
       transform="scale(1,1) matrix(1,0,0,1,22,230) translate(2,22)"
       id="g106">
      <text
         fill="#000000"
         stroke="none"
         font-family="Arial"
         font-size="12px"
         font-style="normal"
         font-weight="normal"
         text-decoration="underline"
         x="21"
         y="11"
         id="text108">
        <tspan
           style="font-weight:bold;-inkscape-font-specification:Arial Bold"
           id="tspan3783">UserTypeID</tspan>
      </text>
    </g>
    <g
       transform="translate(0.5,0.5) matrix(1,0,0,1,20,322)"
       id="g110">
      <g
         id="g112">
        <g
           transform="translate(0,0) scale(1.15,0.58)"
           id="g114">
          <g
             id="g116">
            <path
               fill="#FFFFFF"
               stroke="none"
               d="M 100 50 A 50 50 0 1 0 99.99997500000208 50.04999999166668 Z"
               id="path118" />
            <g
               transform="scale(0.8695652173913044,1.7241379310344829)"
               id="g120">
              <path
                 fill="none"
                 stroke="#000000"
                 d="M 57.49999999999999 0 C 89.25637024999999 0 114.99999999999999 12.983743699999998 114.99999999999999 28.999999999999996 C 114.99999999999999 45.016256299999995 89.25637024999999 57.99999999999999 57.49999999999999 57.99999999999999 C 25.74362975 57.99999999999999 0 45.016256299999995 0 28.999999999999996 C 0 12.983743699999998 25.74362975 0 57.49999999999999 0 Z"
                 stroke-miterlimit="10"
                 id="path122" />
            </g>
          </g>
        </g>
      </g>
    </g>
    <g
       transform="scale(1,1) matrix(1,0,0,1,22,322) translate(2,15)"
       id="g124">
      <text
         fill="#000000"
         stroke="none"
         font-family="Arial"
         font-size="12px"
         font-style="normal"
         font-weight="normal"
         text-decoration="none"
         x="20.5"
         y="11"
         id="text126">Languague </text>
      <text
         fill="#000000"
         stroke="none"
         font-family="Arial"
         font-size="12px"
         font-style="normal"
         font-weight="normal"
         text-decoration="none"
         x="24"
         y="25"
         id="text128">preference</text>
    </g>
    <g
       transform="matrix(1,0,0,1,130.5,254.5)"
       id="g130">
      <g
         transform="translate(0,0)"
         id="g132">
        <g
           transform="translate(-69,-257) translate(-61.5,2.5) matrix(1,0,0,1,0,0)"
           id="g134">
          <g
             id="g136">
            <path
               fill="none"
               stroke="#000000"
               d="M 135 259 L 141.25 259 Q 147.5 259 147.5 269 L 147.5 337 Q 147.5 347 153.75 347 L 160 347"
               stroke-miterlimit="10"
               stroke-width="2"
               id="path138" />
          </g>
        </g>
      </g>
    </g>
    <g
       transform="matrix(1,0,0,1,130.18202219765567,342.5)"
       id="g140">
      <g
         transform="translate(0,0)"
         id="g142">
        <g
           transform="translate(-250,-346) translate(119.81797780234433,3.5) matrix(1,0,0,1,0,0)"
           id="g144">
          <g
             id="g146">
            <path
               fill="none"
               stroke="#000000"
               d="M 160 347 L 155.7803370329426 347 Q 151.56067406588522 347 147.34101109882783 347 L 147.34101109882783 347 Q 143.12134813177045 347 138.90168516471306 347 L 134.68202219765567 347"
               stroke-miterlimit="10"
               stroke-width="2"
               id="path148" />
          </g>
        </g>
      </g>
    </g>
    <g
       transform="matrix(1,0,0,1,275.321054832701,336.5)"
       id="g150">
      <g
         transform="translate(0,0)"
         id="g152">
        <g
           transform="translate(-241,-340) translate(-34.32105483270101,3.5) matrix(1,0,0,1,0,0)"
           id="g154">
          <g
             id="g156">
            <path
               fill="none"
               stroke="#000000"
               d="M 279.821054832701 341 L 303.3807032218007 341 Q 313.3807032218007 341 323.3807032218007 341 L 336.94035161090034 341 Q 346.94035161090034 341 356.94035161090034 341 L 380.5 341"
               stroke-miterlimit="10"
               stroke-width="2"
               id="path158" />
          </g>
        </g>
      </g>
    </g>
    <g
       transform="matrix(1,0,0,1,275.5,342.5)"
       id="g160">
      <g
         transform="translate(0,0)"
         id="g162">
        <g
           transform="translate(-284,-374) translate(8.5,31.5) matrix(1,0,0,1,0,0)"
           id="g164">
          <g
             id="g166">
            <path
               fill="none"
               stroke="#000000"
               d="M 280 347 L 340.5 347 Q 350.5 347 350.5 357 L 350.5 402"
               stroke-miterlimit="10"
               stroke-width="2"
               id="path168" />
          </g>
        </g>
      </g>
    </g>
    <g
       transform="matrix(1,0,0,1,130.5,342.5)"
       id="g170">
      <g
         transform="translate(0,0)"
         id="g172">
        <g
           transform="translate(-134,-439) translate(3.5,96.5) matrix(1,0,0,1,0,0)"
           id="g174">
          <g
             id="g176">
            <path
               fill="none"
               stroke="#000000"
               d="M 135 431 L 141.25 431 Q 147.5 431 147.5 421 L 147.5 357 Q 147.5 347 153.75 347 L 160 347"
               stroke-miterlimit="10"
               stroke-width="2"
               id="path178" />
          </g>
        </g>
      </g>
    </g>
    <g
       transform="translate(0.5,0.5) matrix(1,0,0,1,380,90)"
       id="g180">
      <g
         id="g182">
        <g
           transform="translate(0,0) scale(1.2,0.5)"
           id="g184">
          <g
             id="g186">
            <path
               fill="#FFFFFF"
               stroke="none"
               d="M 0 0 L 100 0 Q 100 0 100 0 L 100 100 Q 100 100 100 100 L 0 100 Q 0 100 0 100 L 0 0 Q 0 0 0 0 Z"
               id="path188" />
            <g
               transform="scale(0.8333333333333334,2)"
               id="g190">
              <path
                 fill="none"
                 stroke="#000000"
                 d="M 0 0 L 120 0 Q 120 0 120 0 L 120 50 Q 120 50 120 50 L 0 50 Q 0 50 0 50 L 0 0 Q 0 0 0 0 Z"
                 stroke-miterlimit="10"
                 id="path192" />
            </g>
          </g>
          <g
             id="g194">
            <g
               transform="scale(0.8333333333333334,2)"
               id="g196">
              <path
                 fill="rgba(0,0,0,0)"
                 stroke="none"
                 d="M 2.4 1 L 2.4 48.5 L 116.39999999999999 48.5 L 116.39999999999999 1.5 L 3.5999999999999996 1.5 Z"
                 opacity="0"
                 id="path198" />
              <path
                 fill="none"
                 stroke="#3C7626"
                 d="M 2.4 1 M 2.4 1 L 2.4 5 M 2.4 5 M 2.4 7 L 2.4 11 M 2.4 11 M 2.4 13 L 2.4 17 M 2.4 17 M 2.4 19 L 2.4 23 M 2.4 23 M 2.4 25 L 2.4 29 M 2.4 29 M 2.4 31 L 2.4 35 M 2.4 35 M 2.4 37 L 2.4 41 M 2.4 41 M 2.4 43 L 2.4 47 M 2.4 47 M 2.9 48.5 L 6.9 48.5 M 6.9 48.5 M 8.9 48.5 L 12.9 48.5 M 12.9 48.5 M 14.9 48.5 L 18.9 48.5 M 18.9 48.5 M 20.9 48.5 L 24.9 48.5 M 24.9 48.5 M 26.9 48.5 L 30.9 48.5 M 30.9 48.5 M 32.9 48.5 L 36.9 48.5 M 36.9 48.5 M 38.9 48.5 L 42.9 48.5 M 42.9 48.5 M 44.9 48.5 L 48.9 48.5 M 48.9 48.5 M 50.9 48.5 L 54.9 48.5 M 54.9 48.5 M 56.9 48.5 L 60.9 48.5 M 60.9 48.5 M 62.9 48.5 L 66.9 48.5 M 66.9 48.5 M 68.9 48.5 L 72.9 48.5 M 72.9 48.5 M 74.9 48.5 L 78.9 48.5 M 78.9 48.5 M 80.9 48.5 L 84.9 48.5 M 84.9 48.5 M 86.9 48.5 L 90.9 48.5 M 90.9 48.5 M 92.9 48.5 L 96.9 48.5 M 96.9 48.5 M 98.9 48.5 L 102.9 48.5 M 102.9 48.5 M 104.9 48.5 L 108.9 48.5 M 108.9 48.5 M 110.9 48.5 L 114.9 48.5 M 114.9 48.5 M 116.39999999999999 47.999999999999986 L 116.39999999999999 43.999999999999986 M 116.39999999999999 43.999999999999986 M 116.39999999999999 41.999999999999986 L 116.39999999999999 37.999999999999986 M 116.39999999999999 37.999999999999986 M 116.39999999999999 35.999999999999986 L 116.39999999999999 31.999999999999986 M 116.39999999999999 31.999999999999986 M 116.39999999999999 29.999999999999986 L 116.39999999999999 25.999999999999986 M 116.39999999999999 25.999999999999986 M 116.39999999999999 23.999999999999986 L 116.39999999999999 19.999999999999986 M 116.39999999999999 19.999999999999986 M 116.39999999999999 17.999999999999986 L 116.39999999999999 13.999999999999986 M 116.39999999999999 13.999999999999986 M 116.39999999999999 11.999999999999986 L 116.39999999999999 7.999999999999986 M 116.39999999999999 7.999999999999986 M 116.39999999999999 5.999999999999986 L 116.39999999999999 1.9999999999999858 M 116.39999999999999 1.9999999999999858 M 114.89999999999998 1.5 L 110.89999999999998 1.5 M 110.89999999999998 1.5 M 108.89999999999998 1.5 L 104.89999999999998 1.5 M 104.89999999999998 1.5 M 102.89999999999998 1.5 L 98.89999999999998 1.5 M 98.89999999999998 1.5 M 96.89999999999998 1.5 L 92.89999999999998 1.5 M 92.89999999999998 1.5 M 90.89999999999998 1.5 L 86.89999999999998 1.5 M 86.89999999999998 1.5 M 84.89999999999998 1.5 L 80.89999999999998 1.5 M 80.89999999999998 1.5 M 78.89999999999998 1.5 L 74.89999999999998 1.5 M 74.89999999999998 1.5 M 72.89999999999998 1.5 L 68.89999999999998 1.5 M 68.89999999999998 1.5 M 66.89999999999998 1.5 L 62.89999999999998 1.5 M 62.89999999999998 1.5 M 60.89999999999998 1.5 L 56.89999999999998 1.5 M 56.89999999999998 1.5 M 54.89999999999998 1.5 L 50.89999999999998 1.5 M 50.89999999999998 1.5 M 48.89999999999998 1.5 L 44.89999999999998 1.5 M 44.89999999999998 1.5 M 42.89999999999998 1.5 L 38.89999999999998 1.5 M 38.89999999999998 1.5 M 36.89999999999998 1.5 L 32.89999999999998 1.5 M 32.89999999999998 1.5 M 30.899999999999977 1.5 L 26.899999999999977 1.5 M 26.899999999999977 1.5 M 24.899999999999977 1.5 L 20.899999999999977 1.5 M 20.899999999999977 1.5 M 18.899999999999977 1.5 L 14.899999999999977 1.5 M 14.899999999999977 1.5 M 12.899999999999977 1.5 L 8.899999999999977 1.5 M 8.899999999999977 1.5 M 6.899999999999977 1.5 L 3.5999999999999996 1.5 Z"
                 stroke-miterlimit="10"
                 opacity="0"
                 id="path200" />
            </g>
          </g>
        </g>
      </g>
    </g>
    <g
       transform="scale(1,1) matrix(1,0,0,1,382,90) translate(2,18)"
       id="g202">
      <text
         fill="#000000"
         stroke="none"
         font-family="Arial"
         font-size="12px"
         font-style="normal"
         font-weight="normal"
         text-decoration="none"
         x="36"
         y="11"
         id="text204">Person</text>
    </g>
    <g
       transform="translate(0.5,0.5) matrix(1,0,0,1,382,24)"
       id="g206">
      <g
         id="g208">
        <g
           transform="translate(0,0) scale(1.15,0.58)"
           id="g210">
          <g
             id="g212">
            <path
               fill="#FFFFFF"
               stroke="none"
               d="M 100 50 A 50 50 0 1 0 99.99997500000208 50.04999999166668 Z"
               id="path214" />
            <g
               transform="scale(0.8695652173913044,1.7241379310344829)"
               id="g216">
              <path
                 fill="none"
                 stroke="#000000"
                 d="M 57.49999999999999 0 C 89.25637024999999 0 114.99999999999999 12.983743699999998 114.99999999999999 28.999999999999996 C 114.99999999999999 45.016256299999995 89.25637024999999 57.99999999999999 57.49999999999999 57.99999999999999 C 25.74362975 57.99999999999999 0 45.016256299999995 0 28.999999999999996 C 0 12.983743699999998 25.74362975 0 57.49999999999999 0 Z"
                 stroke-miterlimit="10"
                 id="path218" />
            </g>
          </g>
        </g>
      </g>
    </g>
    <g
       transform="scale(1,1) matrix(1,0,0,1,384,24) translate(2,22)"
       id="g220">
      <text
         fill="#000000"
         stroke="none"
         font-family="Arial"
         font-size="12px"
         font-style="normal"
         font-weight="normal"
         text-decoration="underline"
         x="27.5"
         y="11"
         id="text222">
        <tspan
           style="font-weight:bold;-inkscape-font-specification:Arial Bold"
           id="tspan3781">PersonID</tspan>
      </text>
    </g>
    <g
       transform="translate(0.5,0.5) matrix(1,0,0,1,200,53)"
       id="g224">
      <g
         id="g226">
        <g
           transform="translate(0,0) scale(1.15,0.58)"
           id="g228">
          <g
             id="g230">
            <path
               fill="#FFFFFF"
               stroke="none"
               d="M 100 50 A 50 50 0 1 0 99.99997500000208 50.04999999166668 Z"
               id="path232" />
            <g
               transform="scale(0.8695652173913044,1.7241379310344829)"
               id="g234">
              <path
                 fill="none"
                 stroke="#000000"
                 d="M 57.49999999999999 0 C 89.25637024999999 0 114.99999999999999 12.983743699999998 114.99999999999999 28.999999999999996 C 114.99999999999999 45.016256299999995 89.25637024999999 57.99999999999999 57.49999999999999 57.99999999999999 C 25.74362975 57.99999999999999 0 45.016256299999995 0 28.999999999999996 C 0 12.983743699999998 25.74362975 0 57.49999999999999 0 Z"
                 stroke-miterlimit="10"
                 id="path236" />
            </g>
          </g>
        </g>
      </g>
    </g>
    <g
       transform="scale(1,1) matrix(1,0,0,1,202,53) translate(2,22)"
       id="g238">
      <text
         fill="#000000"
         stroke="none"
         font-family="Arial"
         font-size="12px"
         font-style="normal"
         font-weight="normal"
         text-decoration="none"
         x="24"
         y="11"
         id="text240">First name</text>
    </g>
    <g
       transform="translate(0.5,0.5) matrix(1,0,0,1,571.5,53)"
       id="g242">
      <g
         id="g244">
        <g
           transform="translate(0,0) scale(1.15,0.58)"
           id="g246">
          <g
             id="g248">
            <path
               fill="#FFFFFF"
               stroke="none"
               d="M 100 50 A 50 50 0 1 0 99.99997500000208 50.04999999166668 Z"
               id="path250" />
            <g
               transform="scale(0.8695652173913044,1.7241379310344829)"
               id="g252">
              <path
                 fill="none"
                 stroke="#000000"
                 d="M 57.49999999999999 0 C 89.25637024999999 0 114.99999999999999 12.983743699999998 114.99999999999999 28.999999999999996 C 114.99999999999999 45.016256299999995 89.25637024999999 57.99999999999999 57.49999999999999 57.99999999999999 C 25.74362975 57.99999999999999 0 45.016256299999995 0 28.999999999999996 C 0 12.983743699999998 25.74362975 0 57.49999999999999 0 Z"
                 stroke-miterlimit="10"
                 id="path254" />
            </g>
          </g>
        </g>
      </g>
    </g>
    <g
       transform="scale(1,1) matrix(1,0,0,1,573.5,53) translate(2,22)"
       id="g256">
      <text
         fill="#000000"
         stroke="none"
         font-family="Arial"
         font-size="12px"
         font-style="normal"
         font-weight="normal"
         text-decoration="none"
         x="24"
         y="11"
         id="text258">Last name</text>
    </g>
    <g
       transform="translate(0.5,0.5) matrix(1,0,0,1,198,118)"
       id="g260">
      <g
         id="g262">
        <g
           transform="translate(0,0) scale(1.15,0.58)"
           id="g264">
          <g
             id="g266">
            <path
               fill="#FFFFFF"
               stroke="none"
               d="M 100 50 A 50 50 0 1 0 99.99997500000208 50.04999999166668 Z"
               id="path268" />
            <g
               transform="scale(0.8695652173913044,1.7241379310344829)"
               id="g270">
              <path
                 fill="none"
                 stroke="#000000"
                 d="M 57.49999999999999 0 C 89.25637024999999 0 114.99999999999999 12.983743699999998 114.99999999999999 28.999999999999996 C 114.99999999999999 45.016256299999995 89.25637024999999 57.99999999999999 57.49999999999999 57.99999999999999 C 25.74362975 57.99999999999999 0 45.016256299999995 0 28.999999999999996 C 0 12.983743699999998 25.74362975 0 57.49999999999999 0 Z"
                 stroke-miterlimit="10"
                 id="path272" />
            </g>
          </g>
        </g>
      </g>
    </g>
    <g
       transform="scale(1,1) matrix(1,0,0,1,200,118) translate(2,22)"
       id="g274">
      <text
         fill="#000000"
         stroke="none"
         font-family="Arial"
         font-size="12px"
         font-style="normal"
         font-weight="normal"
         text-decoration="none"
         x="37.5"
         y="11"
         id="text276">Email</text>
    </g>
    <g
       transform="translate(0.5,0.5) matrix(1,0,0,1,571.5,118)"
       id="g278">
      <g
         id="g280">
        <g
           transform="translate(0,0) scale(1.15,0.58)"
           id="g282">
          <g
             id="g284">
            <path
               fill="#FFFFFF"
               stroke="none"
               d="M 100 50 A 50 50 0 1 0 99.99997500000208 50.04999999166668 Z"
               id="path286" />
            <g
               transform="scale(0.8695652173913044,1.7241379310344829)"
               id="g288">
              <path
                 fill="none"
                 stroke="#000000"
                 d="M 57.49999999999999 0 C 89.25637024999999 0 114.99999999999999 12.983743699999998 114.99999999999999 28.999999999999996 C 114.99999999999999 45.016256299999995 89.25637024999999 57.99999999999999 57.49999999999999 57.99999999999999 C 25.74362975 57.99999999999999 0 45.016256299999995 0 28.999999999999996 C 0 12.983743699999998 25.74362975 0 57.49999999999999 0 Z"
                 stroke-miterlimit="10"
                 id="path290" />
            </g>
          </g>
        </g>
      </g>
    </g>
    <g
       transform="scale(1,1) matrix(1,0,0,1,573.5,118) translate(2,22)"
       id="g292">
      <text
         fill="#000000"
         stroke="none"
         font-family="Arial"
         font-size="12px"
         font-style="normal"
         font-weight="normal"
         text-decoration="none"
         x="29"
         y="11"
         id="text294">Birthdate</text>
    </g>
    <g
       transform="matrix(1,0,0,1,435,77.5)"
       id="g296">
      <g
         transform="translate(0,0)"
         id="g298">
        <g
           transform="translate(-318,-419) translate(-117,341.5) matrix(1,0,0,1,0,0)"
           id="g300">
          <g
             id="g302">
            <path
               fill="none"
               stroke="#000000"
               d="M 439.5 82 L 439.5 84 Q 439.5 86 439.75 86 L 439.75 86 Q 440 86 440 88 L 440 90"
               stroke-miterlimit="10"
               stroke-width="2"
               id="path304" />
          </g>
        </g>
      </g>
    </g>
    <g
       transform="matrix(1,0,0,1,310.5,77.5)"
       id="g306">
      <g
         transform="translate(0,0)"
         id="g308">
        <g
           transform="translate(-425,-494) translate(114.5,416.5) matrix(1,0,0,1,0,0)"
           id="g310">
          <g
             id="g312">
            <path
               fill="none"
               stroke="#000000"
               d="M 315 82 L 337.5 82 Q 347.5 82 347.5 92 L 347.5 105 Q 347.5 115 357.5 115 L 380 115"
               stroke-miterlimit="10"
               stroke-width="2"
               id="path314" />
          </g>
        </g>
      </g>
    </g>
    <g
       transform="matrix(1,0,0,1,495.5,77.5)"
       id="g316">
      <g
         transform="translate(0,0)"
         id="g318">
        <g
           transform="translate(-575,-490) translate(79.5,412.5) matrix(1,0,0,1,0,0)"
           id="g320">
          <g
             id="g322">
            <path
               fill="none"
               stroke="#000000"
               d="M 571.5 82 L 545.75 82 Q 535.75 82 535.75 92 L 535.75 105 Q 535.75 115 525.75 115 L 500 115"
               stroke-miterlimit="10"
               stroke-width="2"
               id="path324" />
          </g>
        </g>
      </g>
    </g>
    <g
       transform="matrix(1,0,0,1,308.5,110.5)"
       id="g326">
      <g
         transform="translate(0,0)"
         id="g328">
        <g
           transform="translate(-634,-359) translate(325.5,248.5) matrix(1,0,0,1,0,0)"
           id="g330">
          <g
             id="g332">
            <path
               fill="none"
               stroke="#000000"
               d="M 313 147 L 336.5 147 Q 346.5 147 346.5 137 L 346.5 125 Q 346.5 115 356.5 115 L 380 115"
               stroke-miterlimit="10"
               stroke-width="2"
               id="path334" />
          </g>
        </g>
      </g>
    </g>
    <g
       transform="matrix(1,0,0,1,495.5,110.5)"
       id="g336">
      <g
         transform="translate(0,0)"
         id="g338">
        <g
           transform="translate(-351,-563) translate(-144.5,452.5) matrix(1,0,0,1,0,0)"
           id="g340">
          <g
             id="g342">
            <path
               fill="none"
               stroke="#000000"
               d="M 571.5 147 L 545.75 147 Q 535.75 147 535.75 137 L 535.75 125 Q 535.75 115 525.75 115 L 500 115"
               stroke-miterlimit="10"
               stroke-width="2"
               id="path344" />
          </g>
        </g>
      </g>
    </g>
    <g
       transform="translate(0,0) matrix(1,0,0,1,410.75,198)"
       id="g346">
      <g
         id="g348">
        <g
           transform="translate(0,0) scale(0.575,0.49)"
           id="g350">
          <g
             id="g352">
            <g
               transform="scale(1.7391304347826089,2.0408163265306123)"
               id="g354">
              <path
                 fill="#FFFFFF"
                 stroke="#333333"
                 d="M 28.749999999999996 0 L 57.49999999999999 49 L 0 49 L 28.749999999999996 0 L 28.749999999999996 0 Z"
                 stroke-miterlimit="10"
                 stroke-width="2"
                 id="path356" />
            </g>
          </g>
        </g>
      </g>
    </g>
    <g
       transform="scale(1,1) matrix(1,0,0,1,413.05,198) translate(2,17.5)"
       id="g358">
      <text
         fill="#000000"
         stroke="none"
         font-family="Arial"
         font-size="12px"
         font-style="normal"
         font-weight="normal"
         text-decoration="none"
         x="15.45"
         y="11"
         id="text360">ISA</text>
    </g>
    <g
       transform="matrix(1,0,0,1,215.5,242.5)"
       id="g362">
      <g
         transform="translate(0,0)"
         id="g364">
        <g
           transform="translate(-219,-319) translate(3.5,76.5) matrix(1,0,0,1,0,0)"
           id="g366">
          <g
             id="g368">
            <path
               fill="none"
               stroke="#000000"
               d="M 220 322 L 220 259.5 Q 220 249.5 230 249.5 L 400.75 249.5 Q 410.75 249.5 410.75 248.25 L 410.75 247"
               stroke-miterlimit="10"
               stroke-width="2"
               id="path370" />
          </g>
        </g>
      </g>
    </g>
    <g
       transform="matrix(1,0,0,1,431.5,135.5)"
       id="g372">
      <g
         transform="translate(0,0)"
         id="g374">
        <g
           transform="translate(-297,-165) translate(-134.5,29.5) matrix(1,0,0,1,0,0)"
           id="g376">
          <g
             id="g378">
            <path
               fill="none"
               stroke="#000000"
               d="M 436 198.00215513237418 L 436 179.0010775661871 Q 436 169.0010775661871 436 169.0010775661871 L 436 169.0010775661871 Q 436 169.0010775661871 436 159.0010775661871 L 436 140"
               stroke-miterlimit="10"
               stroke-width="2"
               id="path380" />
          </g>
        </g>
      </g>
    </g>
    <g
       transform="translate(0.5,0.5) matrix(1,0,0,1,580,320)"
       id="g382">
      <g
         id="g384">
        <g
           transform="translate(0,0) scale(1.2,0.5)"
           id="g386">
          <g
             id="g388">
            <path
               fill="#FFFFFF"
               stroke="none"
               d="M 0 0 L 100 0 Q 100 0 100 0 L 100 100 Q 100 100 100 100 L 0 100 Q 0 100 0 100 L 0 0 Q 0 0 0 0 Z"
               id="path390" />
            <g
               transform="scale(0.8333333333333334,2)"
               id="g392">
              <path
                 fill="none"
                 stroke="#000000"
                 d="M 0 0 L 120 0 Q 120 0 120 0 L 120 50 Q 120 50 120 50 L 0 50 Q 0 50 0 50 L 0 0 Q 0 0 0 0 Z"
                 stroke-miterlimit="10"
                 id="path394" />
            </g>
          </g>
          <g
             id="g396">
            <g
               transform="scale(0.8333333333333334,2)"
               id="g398">
              <path
                 fill="rgba(0,0,0,0)"
                 stroke="none"
                 d="M 2.4 1 L 2.4 48.5 L 116.39999999999999 48.5 L 116.39999999999999 1.5 L 3.5999999999999996 1.5 Z"
                 opacity="0"
                 id="path400" />
              <path
                 fill="none"
                 stroke="#3C7626"
                 d="M 2.4 1 M 2.4 1 L 2.4 5 M 2.4 5 M 2.4 7 L 2.4 11 M 2.4 11 M 2.4 13 L 2.4 17 M 2.4 17 M 2.4 19 L 2.4 23 M 2.4 23 M 2.4 25 L 2.4 29 M 2.4 29 M 2.4 31 L 2.4 35 M 2.4 35 M 2.4 37 L 2.4 41 M 2.4 41 M 2.4 43 L 2.4 47 M 2.4 47 M 2.9 48.5 L 6.9 48.5 M 6.9 48.5 M 8.9 48.5 L 12.9 48.5 M 12.9 48.5 M 14.9 48.5 L 18.9 48.5 M 18.9 48.5 M 20.9 48.5 L 24.9 48.5 M 24.9 48.5 M 26.9 48.5 L 30.9 48.5 M 30.9 48.5 M 32.9 48.5 L 36.9 48.5 M 36.9 48.5 M 38.9 48.5 L 42.9 48.5 M 42.9 48.5 M 44.9 48.5 L 48.9 48.5 M 48.9 48.5 M 50.9 48.5 L 54.9 48.5 M 54.9 48.5 M 56.9 48.5 L 60.9 48.5 M 60.9 48.5 M 62.9 48.5 L 66.9 48.5 M 66.9 48.5 M 68.9 48.5 L 72.9 48.5 M 72.9 48.5 M 74.9 48.5 L 78.9 48.5 M 78.9 48.5 M 80.9 48.5 L 84.9 48.5 M 84.9 48.5 M 86.9 48.5 L 90.9 48.5 M 90.9 48.5 M 92.9 48.5 L 96.9 48.5 M 96.9 48.5 M 98.9 48.5 L 102.9 48.5 M 102.9 48.5 M 104.9 48.5 L 108.9 48.5 M 108.9 48.5 M 110.9 48.5 L 114.9 48.5 M 114.9 48.5 M 116.39999999999999 47.999999999999986 L 116.39999999999999 43.999999999999986 M 116.39999999999999 43.999999999999986 M 116.39999999999999 41.999999999999986 L 116.39999999999999 37.999999999999986 M 116.39999999999999 37.999999999999986 M 116.39999999999999 35.999999999999986 L 116.39999999999999 31.999999999999986 M 116.39999999999999 31.999999999999986 M 116.39999999999999 29.999999999999986 L 116.39999999999999 25.999999999999986 M 116.39999999999999 25.999999999999986 M 116.39999999999999 23.999999999999986 L 116.39999999999999 19.999999999999986 M 116.39999999999999 19.999999999999986 M 116.39999999999999 17.999999999999986 L 116.39999999999999 13.999999999999986 M 116.39999999999999 13.999999999999986 M 116.39999999999999 11.999999999999986 L 116.39999999999999 7.999999999999986 M 116.39999999999999 7.999999999999986 M 116.39999999999999 5.999999999999986 L 116.39999999999999 1.9999999999999858 M 116.39999999999999 1.9999999999999858 M 114.89999999999998 1.5 L 110.89999999999998 1.5 M 110.89999999999998 1.5 M 108.89999999999998 1.5 L 104.89999999999998 1.5 M 104.89999999999998 1.5 M 102.89999999999998 1.5 L 98.89999999999998 1.5 M 98.89999999999998 1.5 M 96.89999999999998 1.5 L 92.89999999999998 1.5 M 92.89999999999998 1.5 M 90.89999999999998 1.5 L 86.89999999999998 1.5 M 86.89999999999998 1.5 M 84.89999999999998 1.5 L 80.89999999999998 1.5 M 80.89999999999998 1.5 M 78.89999999999998 1.5 L 74.89999999999998 1.5 M 74.89999999999998 1.5 M 72.89999999999998 1.5 L 68.89999999999998 1.5 M 68.89999999999998 1.5 M 66.89999999999998 1.5 L 62.89999999999998 1.5 M 62.89999999999998 1.5 M 60.89999999999998 1.5 L 56.89999999999998 1.5 M 56.89999999999998 1.5 M 54.89999999999998 1.5 L 50.89999999999998 1.5 M 50.89999999999998 1.5 M 48.89999999999998 1.5 L 44.89999999999998 1.5 M 44.89999999999998 1.5 M 42.89999999999998 1.5 L 38.89999999999998 1.5 M 38.89999999999998 1.5 M 36.89999999999998 1.5 L 32.89999999999998 1.5 M 32.89999999999998 1.5 M 30.899999999999977 1.5 L 26.899999999999977 1.5 M 26.899999999999977 1.5 M 24.899999999999977 1.5 L 20.899999999999977 1.5 M 20.899999999999977 1.5 M 18.899999999999977 1.5 L 14.899999999999977 1.5 M 14.899999999999977 1.5 M 12.899999999999977 1.5 L 8.899999999999977 1.5 M 8.899999999999977 1.5 M 6.899999999999977 1.5 L 3.5999999999999996 1.5 Z"
                 stroke-miterlimit="10"
                 opacity="0"
                 id="path402" />
            </g>
          </g>
        </g>
      </g>
    </g>
    <g
       transform="scale(1,1) matrix(1,0,0,1,582,320) translate(2,18)"
       id="g404">
      <text
         fill="#000000"
         stroke="none"
         font-family="Arial"
         font-size="12px"
         font-style="normal"
         font-weight="normal"
         text-decoration="none"
         x="2.5"
         y="11"
         id="text406">NotRegisteredUser</text>
    </g>
    <g
       transform="matrix(1,0,0,1,463.75,242.5)"
       id="g408">
      <g
         transform="translate(0,0)"
         id="g410">
        <g
           transform="translate(-450,-597) translate(-13.75,354.5) matrix(1,0,0,1,0,0)"
           id="g412">
          <g
             id="g414">
            <path
               fill="none"
               stroke="#000000"
               d="M 640 320 L 640 257 Q 640 247 630 247 L 468.25 247"
               stroke-miterlimit="10"
               stroke-width="2"
               id="path416" />
          </g>
        </g>
      </g>
    </g>
    <g
       transform="scale(1,1) matrix(1,0,0,1,460.5,208.5) translate(2,0)"
       id="g418">
      <text
         fill="#000000"
         stroke="none"
         font-family="Arial"
         font-size="12px"
         font-style="normal"
         font-weight="normal"
         text-decoration="none"
         x="5"
         y="11"
         id="text420">disjoint</text>
    </g>
    <g
       transform="translate(0.5,0.5) matrix(1,0,0,1,160,518)"
       id="g422">
      <g
         id="g424">
        <g
           transform="translate(0,0) scale(1.2,0.5)"
           id="g426">
          <g
             id="g428">
            <path
               fill="#FFFFFF"
               stroke="none"
               d="M 0 0 L 100 0 Q 100 0 100 0 L 100 100 Q 100 100 100 100 L 0 100 Q 0 100 0 100 L 0 0 Q 0 0 0 0 Z"
               id="path430" />
            <g
               transform="scale(0.8333333333333334,2)"
               id="g432">
              <path
                 fill="none"
                 stroke="#000000"
                 d="M 0 0 L 120 0 Q 120 0 120 0 L 120 50 Q 120 50 120 50 L 0 50 Q 0 50 0 50 L 0 0 Q 0 0 0 0 Z"
                 stroke-miterlimit="10"
                 id="path434" />
            </g>
          </g>
          <g
             id="g436">
            <g
               transform="scale(0.8333333333333334,2)"
               id="g438">
              <path
                 fill="rgba(0,0,0,0)"
                 stroke="none"
                 d="M 2.4 1 L 2.4 48.5 L 116.39999999999999 48.5 L 116.39999999999999 1.5 L 3.5999999999999996 1.5 Z"
                 opacity="0"
                 id="path440" />
              <path
                 fill="none"
                 stroke="#3C7626"
                 d="M 2.4 1 M 2.4 1 L 2.4 5 M 2.4 5 M 2.4 7 L 2.4 11 M 2.4 11 M 2.4 13 L 2.4 17 M 2.4 17 M 2.4 19 L 2.4 23 M 2.4 23 M 2.4 25 L 2.4 29 M 2.4 29 M 2.4 31 L 2.4 35 M 2.4 35 M 2.4 37 L 2.4 41 M 2.4 41 M 2.4 43 L 2.4 47 M 2.4 47 M 2.9 48.5 L 6.9 48.5 M 6.9 48.5 M 8.9 48.5 L 12.9 48.5 M 12.9 48.5 M 14.9 48.5 L 18.9 48.5 M 18.9 48.5 M 20.9 48.5 L 24.9 48.5 M 24.9 48.5 M 26.9 48.5 L 30.9 48.5 M 30.9 48.5 M 32.9 48.5 L 36.9 48.5 M 36.9 48.5 M 38.9 48.5 L 42.9 48.5 M 42.9 48.5 M 44.9 48.5 L 48.9 48.5 M 48.9 48.5 M 50.9 48.5 L 54.9 48.5 M 54.9 48.5 M 56.9 48.5 L 60.9 48.5 M 60.9 48.5 M 62.9 48.5 L 66.9 48.5 M 66.9 48.5 M 68.9 48.5 L 72.9 48.5 M 72.9 48.5 M 74.9 48.5 L 78.9 48.5 M 78.9 48.5 M 80.9 48.5 L 84.9 48.5 M 84.9 48.5 M 86.9 48.5 L 90.9 48.5 M 90.9 48.5 M 92.9 48.5 L 96.9 48.5 M 96.9 48.5 M 98.9 48.5 L 102.9 48.5 M 102.9 48.5 M 104.9 48.5 L 108.9 48.5 M 108.9 48.5 M 110.9 48.5 L 114.9 48.5 M 114.9 48.5 M 116.39999999999999 47.999999999999986 L 116.39999999999999 43.999999999999986 M 116.39999999999999 43.999999999999986 M 116.39999999999999 41.999999999999986 L 116.39999999999999 37.999999999999986 M 116.39999999999999 37.999999999999986 M 116.39999999999999 35.999999999999986 L 116.39999999999999 31.999999999999986 M 116.39999999999999 31.999999999999986 M 116.39999999999999 29.999999999999986 L 116.39999999999999 25.999999999999986 M 116.39999999999999 25.999999999999986 M 116.39999999999999 23.999999999999986 L 116.39999999999999 19.999999999999986 M 116.39999999999999 19.999999999999986 M 116.39999999999999 17.999999999999986 L 116.39999999999999 13.999999999999986 M 116.39999999999999 13.999999999999986 M 116.39999999999999 11.999999999999986 L 116.39999999999999 7.999999999999986 M 116.39999999999999 7.999999999999986 M 116.39999999999999 5.999999999999986 L 116.39999999999999 1.9999999999999858 M 116.39999999999999 1.9999999999999858 M 114.89999999999998 1.5 L 110.89999999999998 1.5 M 110.89999999999998 1.5 M 108.89999999999998 1.5 L 104.89999999999998 1.5 M 104.89999999999998 1.5 M 102.89999999999998 1.5 L 98.89999999999998 1.5 M 98.89999999999998 1.5 M 96.89999999999998 1.5 L 92.89999999999998 1.5 M 92.89999999999998 1.5 M 90.89999999999998 1.5 L 86.89999999999998 1.5 M 86.89999999999998 1.5 M 84.89999999999998 1.5 L 80.89999999999998 1.5 M 80.89999999999998 1.5 M 78.89999999999998 1.5 L 74.89999999999998 1.5 M 74.89999999999998 1.5 M 72.89999999999998 1.5 L 68.89999999999998 1.5 M 68.89999999999998 1.5 M 66.89999999999998 1.5 L 62.89999999999998 1.5 M 62.89999999999998 1.5 M 60.89999999999998 1.5 L 56.89999999999998 1.5 M 56.89999999999998 1.5 M 54.89999999999998 1.5 L 50.89999999999998 1.5 M 50.89999999999998 1.5 M 48.89999999999998 1.5 L 44.89999999999998 1.5 M 44.89999999999998 1.5 M 42.89999999999998 1.5 L 38.89999999999998 1.5 M 38.89999999999998 1.5 M 36.89999999999998 1.5 L 32.89999999999998 1.5 M 32.89999999999998 1.5 M 30.899999999999977 1.5 L 26.899999999999977 1.5 M 26.899999999999977 1.5 M 24.899999999999977 1.5 L 20.899999999999977 1.5 M 20.899999999999977 1.5 M 18.899999999999977 1.5 L 14.899999999999977 1.5 M 14.899999999999977 1.5 M 12.899999999999977 1.5 L 8.899999999999977 1.5 M 8.899999999999977 1.5 M 6.899999999999977 1.5 L 3.5999999999999996 1.5 Z"
                 stroke-miterlimit="10"
                 opacity="0"
                 id="path442" />
            </g>
          </g>
        </g>
      </g>
    </g>
    <g
       transform="scale(1,1) matrix(1,0,0,1,162,518) translate(2,18)"
       id="g444">
      <text
         fill="#000000"
         stroke="none"
         font-family="Arial"
         font-size="12px"
         font-style="normal"
         font-weight="normal"
         text-decoration="none"
         x="33"
         y="11"
         id="text446">Session</text>
    </g>
    <g
       transform="translate(0.5,0.5) matrix(1,0,0,1,580.5,518)"
       id="g448">
      <g
         id="g450">
        <g
           transform="translate(0,0) scale(1.2,0.5)"
           id="g452">
          <g
             id="g454">
            <path
               fill="#FFFFFF"
               stroke="none"
               d="M 0 0 L 100 0 Q 100 0 100 0 L 100 100 Q 100 100 100 100 L 0 100 Q 0 100 0 100 L 0 0 Q 0 0 0 0 Z"
               id="path456" />
            <g
               transform="scale(0.8333333333333334,2)"
               id="g458">
              <path
                 fill="none"
                 stroke="#000000"
                 d="M 0 0 L 120 0 Q 120 0 120 0 L 120 50 Q 120 50 120 50 L 0 50 Q 0 50 0 50 L 0 0 Q 0 0 0 0 Z"
                 stroke-miterlimit="10"
                 id="path460" />
            </g>
          </g>
          <g
             id="g462">
            <g
               transform="scale(0.8333333333333334,2)"
               id="g464">
              <path
                 fill="rgba(0,0,0,0)"
                 stroke="none"
                 d="M 2.4 1 L 2.4 48.5 L 116.39999999999999 48.5 L 116.39999999999999 1.5 L 3.5999999999999996 1.5 Z"
                 opacity="0"
                 id="path466" />
              <path
                 fill="none"
                 stroke="#3C7626"
                 d="M 2.4 1 M 2.4 1 L 2.4 5 M 2.4 5 M 2.4 7 L 2.4 11 M 2.4 11 M 2.4 13 L 2.4 17 M 2.4 17 M 2.4 19 L 2.4 23 M 2.4 23 M 2.4 25 L 2.4 29 M 2.4 29 M 2.4 31 L 2.4 35 M 2.4 35 M 2.4 37 L 2.4 41 M 2.4 41 M 2.4 43 L 2.4 47 M 2.4 47 M 2.9 48.5 L 6.9 48.5 M 6.9 48.5 M 8.9 48.5 L 12.9 48.5 M 12.9 48.5 M 14.9 48.5 L 18.9 48.5 M 18.9 48.5 M 20.9 48.5 L 24.9 48.5 M 24.9 48.5 M 26.9 48.5 L 30.9 48.5 M 30.9 48.5 M 32.9 48.5 L 36.9 48.5 M 36.9 48.5 M 38.9 48.5 L 42.9 48.5 M 42.9 48.5 M 44.9 48.5 L 48.9 48.5 M 48.9 48.5 M 50.9 48.5 L 54.9 48.5 M 54.9 48.5 M 56.9 48.5 L 60.9 48.5 M 60.9 48.5 M 62.9 48.5 L 66.9 48.5 M 66.9 48.5 M 68.9 48.5 L 72.9 48.5 M 72.9 48.5 M 74.9 48.5 L 78.9 48.5 M 78.9 48.5 M 80.9 48.5 L 84.9 48.5 M 84.9 48.5 M 86.9 48.5 L 90.9 48.5 M 90.9 48.5 M 92.9 48.5 L 96.9 48.5 M 96.9 48.5 M 98.9 48.5 L 102.9 48.5 M 102.9 48.5 M 104.9 48.5 L 108.9 48.5 M 108.9 48.5 M 110.9 48.5 L 114.9 48.5 M 114.9 48.5 M 116.39999999999999 47.999999999999986 L 116.39999999999999 43.999999999999986 M 116.39999999999999 43.999999999999986 M 116.39999999999999 41.999999999999986 L 116.39999999999999 37.999999999999986 M 116.39999999999999 37.999999999999986 M 116.39999999999999 35.999999999999986 L 116.39999999999999 31.999999999999986 M 116.39999999999999 31.999999999999986 M 116.39999999999999 29.999999999999986 L 116.39999999999999 25.999999999999986 M 116.39999999999999 25.999999999999986 M 116.39999999999999 23.999999999999986 L 116.39999999999999 19.999999999999986 M 116.39999999999999 19.999999999999986 M 116.39999999999999 17.999999999999986 L 116.39999999999999 13.999999999999986 M 116.39999999999999 13.999999999999986 M 116.39999999999999 11.999999999999986 L 116.39999999999999 7.999999999999986 M 116.39999999999999 7.999999999999986 M 116.39999999999999 5.999999999999986 L 116.39999999999999 1.9999999999999858 M 116.39999999999999 1.9999999999999858 M 114.89999999999998 1.5 L 110.89999999999998 1.5 M 110.89999999999998 1.5 M 108.89999999999998 1.5 L 104.89999999999998 1.5 M 104.89999999999998 1.5 M 102.89999999999998 1.5 L 98.89999999999998 1.5 M 98.89999999999998 1.5 M 96.89999999999998 1.5 L 92.89999999999998 1.5 M 92.89999999999998 1.5 M 90.89999999999998 1.5 L 86.89999999999998 1.5 M 86.89999999999998 1.5 M 84.89999999999998 1.5 L 80.89999999999998 1.5 M 80.89999999999998 1.5 M 78.89999999999998 1.5 L 74.89999999999998 1.5 M 74.89999999999998 1.5 M 72.89999999999998 1.5 L 68.89999999999998 1.5 M 68.89999999999998 1.5 M 66.89999999999998 1.5 L 62.89999999999998 1.5 M 62.89999999999998 1.5 M 60.89999999999998 1.5 L 56.89999999999998 1.5 M 56.89999999999998 1.5 M 54.89999999999998 1.5 L 50.89999999999998 1.5 M 50.89999999999998 1.5 M 48.89999999999998 1.5 L 44.89999999999998 1.5 M 44.89999999999998 1.5 M 42.89999999999998 1.5 L 38.89999999999998 1.5 M 38.89999999999998 1.5 M 36.89999999999998 1.5 L 32.89999999999998 1.5 M 32.89999999999998 1.5 M 30.899999999999977 1.5 L 26.899999999999977 1.5 M 26.899999999999977 1.5 M 24.899999999999977 1.5 L 20.899999999999977 1.5 M 20.899999999999977 1.5 M 18.899999999999977 1.5 L 14.899999999999977 1.5 M 14.899999999999977 1.5 M 12.899999999999977 1.5 L 8.899999999999977 1.5 M 8.899999999999977 1.5 M 6.899999999999977 1.5 L 3.5999999999999996 1.5 Z"
                 stroke-miterlimit="10"
                 opacity="0"
                 id="path468" />
            </g>
          </g>
        </g>
      </g>
    </g>
    <g
       transform="scale(1,1) matrix(1,0,0,1,582.5,518) translate(2,18)"
       id="g470">
      <text
         fill="#000000"
         stroke="none"
         font-family="Arial"
         font-size="12px"
         font-style="normal"
         font-weight="normal"
         text-decoration="none"
         x="20.5"
         y="11"
         id="text472">ActivationKey</text>
    </g>
    <g
       transform="translate(0.5,0.5) matrix(1,0,0,1,160,431)"
       id="g474">
      <g
         id="g476">
        <g
           transform="translate(0,0) scale(1.2,0.5)"
           id="g478">
          <g
             id="g480">
            <g
               transform="scale(0.8333333333333334,2)"
               id="g482">
              <path
                 fill="#FFFFFF"
                 stroke="#000000"
                 d="M 60 0 L 120 25 L 60 50 L 0 25 L 60 0 Z"
                 stroke-miterlimit="10"
                 id="path484" />
            </g>
          </g>
        </g>
      </g>
    </g>
    <g
       transform="scale(1,1) matrix(1,0,0,1,162,431) translate(2,18)"
       id="g486">
      <text
         font-size="12px"
         font-style="normal"
         font-weight="normal"
         text-decoration="none"
         x="41"
         y="11"
         id="text488"
         style="font-size:12px;font-style:normal;font-weight:normal;text-decoration:none;fill:#000000;stroke:none;font-family:Arial">opens</text>
    </g>
    <g
       transform="matrix(1,0,0,1,215.5,476.5)"
       id="g490">
      <g
         transform="translate(0,0)"
         id="g492">
        <g
           transform="translate(-224,-671) translate(8.5,194.5) matrix(1,0,0,1,0,0)"
           id="g494">
          <g
             id="g496">
            <path
               fill="none"
               stroke="#000000"
               d="M 220 518 L 220 511.83333333333337 Q 220 505.6666666666667 220 499.5 L 220 499.5 Q 220 493.3333333333333 220 487.16666666666663 L 220 481"
               stroke-miterlimit="10"
               stroke-width="2"
               id="path498" />
          </g>
        </g>
      </g>
    </g>
    <g
       transform="matrix(1,0,0,1,215.5,367.5)"
       id="g500">
      <g
         transform="translate(0,0)"
         id="g502">
        <g
           transform="translate(-353,-567) translate(137.5,199.5) matrix(1,0,0,1,0,0)"
           id="g504">
          <g
             id="g506">
            <path
               fill="none"
               stroke="#000000"
               d="M 220 431 L 220 421.16666666666663 Q 220 411.3333333333333 220 401.5 L 220 401.5 Q 220 391.6666666666667 220 381.83333333333337 L 220 372"
               stroke-miterlimit="10"
               stroke-width="2"
               id="path508" />
          </g>
        </g>
      </g>
    </g>
    <g
       transform="translate(0.5,0.5) matrix(1,0,0,1,580.5,431)"
       id="g510">
      <g
         id="g512">
        <g
           transform="translate(0,0) scale(1.2,0.5)"
           id="g514">
          <g
             id="g516">
            <g
               transform="scale(0.8333333333333334,2)"
               id="g518">
              <path
                 fill="#FFFFFF"
                 stroke="#000000"
                 d="M 60 0 L 120 25 L 60 50 L 0 25 L 60 0 Z"
                 stroke-miterlimit="10"
                 id="path520" />
            </g>
          </g>
        </g>
      </g>
    </g>
    <g
       transform="scale(1,1) matrix(1,0,0,1,582.5,431) translate(2,18)"
       id="g522">
      <text
         fill="#000000"
         stroke="none"
         font-family="Arial"
         font-size="12px"
         font-style="normal"
         font-weight="normal"
         text-decoration="none"
         x="33"
         y="11"
         id="text524">receives</text>
    </g>
    <g
       transform="matrix(1,0,0,1,636,476.5)"
       id="g526">
      <g
         transform="translate(0,0)"
         id="g528">
        <g
           transform="translate(-557,-463) translate(-79,-13.5) matrix(1,0,0,1,0,0)"
           id="g530">
          <g
             id="g532">
            <path
               fill="none"
               stroke="#000000"
               d="M 640.5 481 L 640.5 487.16666666666663 Q 640.5 493.3333333333333 640.5 499.5 L 640.5 499.5 Q 640.5 505.6666666666667 640.5 511.83333333333337 L 640.5 518"
               stroke-miterlimit="10"
               stroke-width="2"
               id="path534" />
          </g>
        </g>
      </g>
    </g>
    <g
       transform="matrix(1,0,0,1,635.5,365.5)"
       id="g536">
      <g
         transform="translate(0,0)"
         id="g538">
        <g
           transform="translate(-727,-414) translate(91.5,48.5) matrix(1,0,0,1,0,0)"
           id="g540">
          <g
             id="g542">
            <path
               fill="none"
               stroke="#000000"
               d="M 640 431.00204914590984 L 640 420.6680327639399 Q 640 410.6680327639399 640 400.6680327639399 L 640 400.33401638196995 Q 640 390.33401638196995 640 380.33401638196995 L 640 370"
               stroke-miterlimit="10"
               stroke-width="2"
               id="path544" />
          </g>
        </g>
      </g>
    </g>
    <g
       transform="translate(0.5,0.5) matrix(1,0,0,1,60,621)"
       id="g546">
      <g
         id="g548">
        <g
           transform="translate(0,0) scale(1.15,0.58)"
           id="g550">
          <g
             id="g552">
            <path
               fill="#FFFFFF"
               stroke="none"
               d="M 100 50 A 50 50 0 1 0 99.99997500000208 50.04999999166668 Z"
               id="path554" />
            <g
               transform="scale(0.8695652173913044,1.7241379310344829)"
               id="g556">
              <path
                 fill="none"
                 stroke="#000000"
                 d="M 57.49999999999999 0 C 89.25637024999999 0 114.99999999999999 12.983743699999998 114.99999999999999 28.999999999999996 C 114.99999999999999 45.016256299999995 89.25637024999999 57.99999999999999 57.49999999999999 57.99999999999999 C 25.74362975 57.99999999999999 0 45.016256299999995 0 28.999999999999996 C 0 12.983743699999998 25.74362975 0 57.49999999999999 0 Z"
                 stroke-miterlimit="10"
                 id="path558" />
            </g>
          </g>
        </g>
      </g>
    </g>
    <g
       transform="scale(1,1) matrix(1,0,0,1,62,621) translate(2,22)"
       id="g560">
      <text
         fill="#000000"
         stroke="none"
         font-family="Arial"
         font-size="12px"
         font-style="normal"
         font-weight="normal"
         text-decoration="underline"
         x="24.5"
         y="11"
         id="text562">
        <tspan
           style="font-weight:bold;-inkscape-font-specification:Arial Bold"
           id="tspan3775">SessionID</tspan>
      </text>
    </g>
    <g
       transform="translate(0.5,0.5) matrix(1,0,0,1,257.5,621)"
       id="g564">
      <g
         id="g566">
        <g
           transform="translate(0,0) scale(1.15,0.58)"
           id="g568">
          <g
             id="g570">
            <path
               fill="#FFFFFF"
               stroke="none"
               d="M 100 50 A 50 50 0 1 0 99.99997500000208 50.04999999166668 Z"
               id="path572" />
            <g
               transform="scale(0.8695652173913044,1.7241379310344829)"
               id="g574">
              <path
                 fill="none"
                 stroke="#000000"
                 d="M 57.49999999999999 0 C 89.25637024999999 0 114.99999999999999 12.983743699999998 114.99999999999999 28.999999999999996 C 114.99999999999999 45.016256299999995 89.25637024999999 57.99999999999999 57.49999999999999 57.99999999999999 C 25.74362975 57.99999999999999 0 45.016256299999995 0 28.999999999999996 C 0 12.983743699999998 25.74362975 0 57.49999999999999 0 Z"
                 stroke-miterlimit="10"
                 id="path576" />
            </g>
          </g>
        </g>
      </g>
    </g>
    <g
       transform="scale(1,1) matrix(1,0,0,1,259.5,621) translate(2,22)"
       id="g578">
      <text
         fill="#000000"
         stroke="none"
         font-family="Arial"
         font-size="12px"
         font-style="normal"
         font-weight="normal"
         text-decoration="none"
         x="20.5"
         y="11"
         id="text580">SessionKey</text>
    </g>
    <g
       transform="translate(0.5,0.5) matrix(1,0,0,1,587.5,621)"
       id="g582">
      <g
         id="g584">
        <g
           transform="translate(0,0) scale(1.15,0.58)"
           id="g586">
          <g
             id="g588">
            <path
               fill="#FFFFFF"
               stroke="none"
               d="M 100 50 A 50 50 0 1 0 99.99997500000208 50.04999999166668 Z"
               id="path590" />
            <g
               transform="scale(0.8695652173913044,1.7241379310344829)"
               id="g592">
              <path
                 fill="none"
                 stroke="#000000"
                 d="M 57.49999999999999 0 C 89.25637024999999 0 114.99999999999999 12.983743699999998 114.99999999999999 28.999999999999996 C 114.99999999999999 45.016256299999995 89.25637024999999 57.99999999999999 57.49999999999999 57.99999999999999 C 25.74362975 57.99999999999999 0 45.016256299999995 0 28.999999999999996 C 0 12.983743699999998 25.74362975 0 57.49999999999999 0 Z"
                 stroke-miterlimit="10"
                 id="path594" />
            </g>
          </g>
        </g>
      </g>
    </g>
    <g
       transform="scale(1,1) matrix(1,0,0,1,589.5,621) translate(2,22)"
       id="g596">
      <text
         fill="#000000"
         stroke="none"
         font-family="Arial"
         font-size="12px"
         font-style="normal"
         font-weight="normal"
         text-decoration="none"
         x="43.5"
         y="11"
         id="text598">Key</text>
    </g>
    <g
       transform="translate(0.5,0.5) matrix(1,0,0,1,730,621)"
       id="g600">
      <g
         id="g602">
        <g
           transform="translate(0,0) scale(1.15,0.58)"
           id="g604">
          <g
             id="g606">
            <path
               fill="#FFFFFF"
               stroke="none"
               d="M 100 50 A 50 50 0 1 0 99.99997500000208 50.04999999166668 Z"
               id="path608" />
            <g
               transform="scale(0.8695652173913044,1.7241379310344829)"
               id="g610">
              <path
                 fill="none"
                 stroke="#000000"
                 d="M 57.49999999999999 0 C 89.25637024999999 0 114.99999999999999 12.983743699999998 114.99999999999999 28.999999999999996 C 114.99999999999999 45.016256299999995 89.25637024999999 57.99999999999999 57.49999999999999 57.99999999999999 C 25.74362975 57.99999999999999 0 45.016256299999995 0 28.999999999999996 C 0 12.983743699999998 25.74362975 0 57.49999999999999 0 Z"
                 stroke-miterlimit="10"
                 id="path612" />
            </g>
          </g>
        </g>
      </g>
    </g>
    <g
       transform="scale(1,1) matrix(1,0,0,1,732,621) translate(2,22)"
       id="g614">
      <text
         fill="#000000"
         stroke="none"
         font-family="Arial"
         font-size="12px"
         font-style="normal"
         font-weight="normal"
         text-decoration="none"
         x="16.5"
         y="11"
         id="text616">Creation date</text>
    </g>
    <g
       transform="translate(0.5,0.5) matrix(1,0,0,1,430,621)"
       id="g618">
      <g
         id="g620">
        <g
           transform="translate(0,0) scale(1.15,0.58)"
           id="g622">
          <g
             id="g624">
            <path
               fill="#FFFFFF"
               stroke="none"
               d="M 100 50 A 50 50 0 1 0 99.99997500000208 50.04999999166668 Z"
               id="path626" />
            <g
               transform="scale(0.8695652173913044,1.7241379310344829)"
               id="g628">
              <path
                 fill="none"
                 stroke="#000000"
                 d="M 57.49999999999999 0 C 89.25637024999999 0 114.99999999999999 12.983743699999998 114.99999999999999 28.999999999999996 C 114.99999999999999 45.016256299999995 89.25637024999999 57.99999999999999 57.49999999999999 57.99999999999999 C 25.74362975 57.99999999999999 0 45.016256299999995 0 28.999999999999996 C 0 12.983743699999998 25.74362975 0 57.49999999999999 0 Z"
                 stroke-miterlimit="10"
                 id="path630" />
            </g>
          </g>
        </g>
      </g>
    </g>
    <g
       transform="scale(1,1) matrix(1,0,0,1,432,621) translate(2,22)"
       id="g632">
      <text
         fill="#000000"
         stroke="none"
         font-family="Arial"
         font-size="12px"
         font-style="normal"
         font-weight="normal"
         text-decoration="underline"
         x="12"
         y="11"
         id="text634">
        <tspan
           style="font-weight:bold;-inkscape-font-specification:Arial Bold"
           id="tspan3777">ActivationKeyID</tspan>
      </text>
    </g>
    <g
       transform="matrix(1,0,0,1,113,538.5)"
       id="g636">
      <g
         transform="translate(0,0)"
         id="g638">
        <g
           transform="translate(-141,-771) translate(28,232.5) matrix(1,0,0,1,0,0)"
           id="g640">
          <g
             id="g642">
            <path
               fill="none"
               stroke="#000000"
               d="M 117.5 621 L 117.5 553 Q 117.5 543 127.5 543 L 160 543"
               stroke-miterlimit="10"
               stroke-width="2"
               id="path644" />
          </g>
        </g>
      </g>
    </g>
    <g
       transform="matrix(1,0,0,1,275.5,538.5)"
       id="g646">
      <g
         transform="translate(0,0)"
         id="g648">
        <g
           transform="translate(-294,-772) translate(18.5,233.5) matrix(1,0,0,1,0,0)"
           id="g650">
          <g
             id="g652">
            <path
               fill="none"
               stroke="#000000"
               d="M 315 621 L 315 553 Q 315 543 305 543 L 280 543"
               stroke-miterlimit="10"
               stroke-width="2"
               id="path654" />
          </g>
        </g>
      </g>
    </g>
    <g
       transform="matrix(1,0,0,1,483,538.5)"
       id="g656">
      <g
         transform="translate(0,0)"
         id="g658">
        <g
           transform="translate(-572,-591) translate(89,52.5) matrix(1,0,0,1,0,0)"
           id="g660">
          <g
             id="g662">
            <path
               fill="none"
               stroke="#000000"
               d="M 487.5 621 L 487.5 553 Q 487.5 543 497.5 543 L 580.5 543"
               stroke-miterlimit="10"
               stroke-width="2"
               id="path664" />
          </g>
        </g>
      </g>
    </g>
    <g
       transform="matrix(1,0,0,1,636,563.5)"
       id="g666">
      <g
         transform="translate(0,0)"
         id="g668">
        <g
           transform="translate(-722,-622) translate(86,58.5) matrix(1,0,0,1,0,0)"
           id="g670">
          <g
             id="g672">
            <path
               fill="none"
               stroke="#000000"
               d="M 640.5 621.1906946749148 L 640.5 612.3255788957623 Q 640.5 603.4604631166098 640.5 594.5953473374574 L 640.5 594.5953473374574 Q 640.5 585.7302315583049 640.5 576.8651157791525 L 640.5 568"
               stroke-miterlimit="10"
               stroke-width="2"
               id="path674" />
          </g>
        </g>
      </g>
    </g>
    <g
       transform="matrix(1,0,0,1,696,538.5)"
       id="g676">
      <g
         transform="translate(0,0)"
         id="g678">
        <g
           transform="translate(-863,-597) translate(167,58.5) matrix(1,0,0,1,0,0)"
           id="g680">
          <g
             id="g682">
            <path
               fill="none"
               stroke="#000000"
               d="M 787.5 621 L 787.5 553 Q 787.5 543 777.5 543 L 700.5 543"
               stroke-miterlimit="10"
               stroke-width="2"
               id="path684" />
          </g>
        </g>
      </g>
    </g>
    <g
       transform="translate(0.5,0.5) matrix(1,0,0,1,760,320)"
       id="g686">
      <g
         id="g688">
        <g
           transform="translate(0,0) scale(1.15,0.58)"
           id="g690">
          <g
             id="g692">
            <path
               fill="#FFFFFF"
               stroke="none"
               d="M 100 50 A 50 50 0 1 0 99.99997500000208 50.04999999166668 Z"
               id="path694" />
            <g
               transform="scale(0.8695652173913044,1.7241379310344829)"
               id="g696">
              <path
                 fill="none"
                 stroke="#000000"
                 d="M 57.49999999999999 0 C 89.25637024999999 0 114.99999999999999 12.983743699999998 114.99999999999999 28.999999999999996 C 114.99999999999999 45.016256299999995 89.25637024999999 57.99999999999999 57.49999999999999 57.99999999999999 C 25.74362975 57.99999999999999 0 45.016256299999995 0 28.999999999999996 C 0 12.983743699999998 25.74362975 0 57.49999999999999 0 Z"
                 stroke-miterlimit="10"
                 id="path698" />
            </g>
          </g>
        </g>
      </g>
    </g>
    <g
       transform="scale(1,1) matrix(1,0,0,1,762,320) translate(2,22)"
       id="g700">
      <text
         fill="#000000"
         stroke="none"
         font-family="Arial"
         font-size="12px"
         font-style="normal"
         font-weight="normal"
         text-decoration="none"
         x="24"
         y="11"
         id="text702">Username</text>
    </g>
    <g
       transform="translate(0.5,0.5) matrix(1,0,0,1,760,402)"
       id="g704">
      <g
         id="g706">
        <g
           transform="translate(0,0) scale(1.15,0.58)"
           id="g708">
          <g
             id="g710">
            <path
               fill="#FFFFFF"
               stroke="none"
               d="M 100 50 A 50 50 0 1 0 99.99997500000208 50.04999999166668 Z"
               id="path712" />
            <g
               transform="scale(0.8695652173913044,1.7241379310344829)"
               id="g714">
              <path
                 fill="none"
                 stroke="#000000"
                 d="M 57.49999999999999 0 C 89.25637024999999 0 114.99999999999999 12.983743699999998 114.99999999999999 28.999999999999996 C 114.99999999999999 45.016256299999995 89.25637024999999 57.99999999999999 57.49999999999999 57.99999999999999 C 25.74362975 57.99999999999999 0 45.016256299999995 0 28.999999999999996 C 0 12.983743699999998 25.74362975 0 57.49999999999999 0 Z"
                 stroke-miterlimit="10"
                 id="path716" />
            </g>
          </g>
        </g>
      </g>
    </g>
    <g
       transform="scale(1,1) matrix(1,0,0,1,762,402) translate(2,22)"
       id="g718">
      <text
         fill="#000000"
         stroke="none"
         font-family="Arial"
         font-size="12px"
         font-style="normal"
         font-weight="normal"
         text-decoration="none"
         x="25.5"
         y="11"
         id="text720">Password</text>
    </g>
    <g
       transform="translate(0.5,0.5) matrix(1,0,0,1,760,250)"
       id="g722">
      <g
         id="g724">
        <g
           transform="translate(0,0) scale(1.3,0.58)"
           id="g726">
          <g
             id="g728">
            <path
               fill="#FFFFFF"
               stroke="none"
               d="M 100 50 A 50 50 0 1 0 99.99997500000208 50.04999999166668 Z"
               id="path730" />
            <g
               transform="scale(0.7692307692307692,1.7241379310344829)"
               id="g732">
              <path
                 fill="none"
                 stroke="#000000"
                 d="M 65 0 C 100.8985055 0 130 12.983743699999998 130 28.999999999999996 C 130 45.016256299999995 100.8985055 57.99999999999999 65 57.99999999999999 C 29.1014945 57.99999999999999 0 45.016256299999995 0 28.999999999999996 C 0 12.983743699999998 29.1014945 0 65 0 Z"
                 stroke-miterlimit="10"
                 id="path734" />
            </g>
          </g>
        </g>
      </g>
    </g>
    <g
       transform="scale(1,1) matrix(1,0,0,1,762.2608695652174,250) translate(2,22)"
       id="g736">
      <text
         fill="#000000"
         stroke="none"
         font-family="Arial"
         font-size="12px"
         font-style="normal"
         font-weight="normal"
         text-decoration="underline"
         x="1.2391304347826022"
         y="11"
         id="text738">
        <tspan
           style="font-weight:bold;-inkscape-font-specification:Arial Bold"
           id="tspan3779">NotRegisteredUserID</tspan>
      </text>
    </g>
    <g
       transform="matrix(1,0,0,1,695.5,340.5)"
       id="g740">
      <g
         transform="translate(0,0)"
         id="g742">
        <g
           transform="translate(-789,-345) translate(93.5,4.5) matrix(1,0,0,1,0,0)"
           id="g744">
          <g
             id="g746">
            <path
               fill="none"
               stroke="#000000"
               d="M 700 345 L 720 345 Q 730 345 730 355 L 730 421 Q 730 431 740 431 L 760 431"
               stroke-miterlimit="10"
               stroke-width="2"
               id="path748" />
          </g>
        </g>
      </g>
    </g>
    <g
       transform="matrix(1,0,0,1,695.5,340.5)"
       id="g750">
      <g
         transform="translate(0,0)"
         id="g752">
        <g
           transform="translate(-782,-344) translate(86.5,3.5) matrix(1,0,0,1,0,0)"
           id="g754">
          <g
             id="g756">
            <path
               fill="none"
               stroke="#000000"
               d="M 700 345 L 710.0443951711638 345 Q 720.0443951711638 345 730.0443951711638 345 L 730.0887903423278 345 Q 740.0887903423278 345 750.0887903423278 345 L 760.1331855134916 345"
               stroke-miterlimit="10"
               stroke-width="2"
               id="path758" />
          </g>
        </g>
      </g>
    </g>
    <g
       transform="matrix(1,0,0,1,695.5,274.5)"
       id="g760">
      <g
         transform="translate(0,0)"
         id="g762">
        <g
           transform="translate(-785,-346) translate(89.5,71.5) matrix(1,0,0,1,0,0)"
           id="g764">
          <g
             id="g766">
            <path
               fill="none"
               stroke="#000000"
               d="M 700 345 L 720 345 Q 730 345 730 335 L 730 289 Q 730 279 740 279 L 760 279"
               stroke-miterlimit="10"
               stroke-width="2"
               id="path768" />
          </g>
        </g>
      </g>
    </g>
    <g
       transform="scale(1,1) matrix(1,0,0,1,544,372.5) translate(2,0)"
       id="g770">
      <text
         fill="#000000"
         stroke="none"
         font-family="Arial"
         font-size="18px"
         font-style="normal"
         font-weight="bold"
         text-decoration="none"
         x="57"
         y="15"
         id="text772">1...*</text>
    </g>
    <g
       transform="scale(1,1) matrix(1,0,0,1,552,492.5) translate(2,0)"
       id="g774">
      <text
         fill="#000000"
         stroke="none"
         font-family="Arial"
         font-size="18px"
         font-style="normal"
         font-weight="bold"
         text-decoration="none"
         x="68"
         y="15"
         id="text776">1</text>
    </g>
    <g
       transform="scale(1,1) matrix(1,0,0,1,125,374.5) translate(2,0)"
       id="g778">
      <text
         font-size="18px"
         font-style="normal"
         font-weight="bold"
         text-decoration="none"
         x="68"
         y="15"
         id="text780"
         style="font-size:18px;font-style:normal;font-weight:bold;text-decoration:none;fill:#000000;stroke:none;font-family:Arial">*</text>
    </g>
    <g
       transform="scale(1,1) matrix(1,0,0,1,121,492.5) translate(2,0)"
       id="g782">
      <text
         font-size="18px"
         font-style="normal"
         font-weight="bold"
         text-decoration="none"
         x="69.5"
         y="15"
         id="text784"
         style="font-size:18px;font-style:normal;font-weight:bold;text-decoration:none;fill:#000000;stroke:none;font-family:Arial">1</text>
    </g>
    <g
       transform="matrix(1,0,0,1,439.5,135.5)"
       id="g786">
      <g
         transform="translate(0,0)"
         id="g788">
        <g
           transform="translate(-305,-165) translate(-134.5,29.5) matrix(1,0,0,1,0,0)"
           id="g790">
          <g
             id="g792">
            <path
               fill="none"
               stroke="#000000"
               d="M 444 198.00215513237418 L 444 179.0010775661871 Q 444 169.0010775661871 444 169.0010775661871 L 444 169.0010775661871 Q 444 169.0010775661871 444 159.0010775661871 L 444 140"
               stroke-miterlimit="10"
               stroke-width="2"
               id="path794" />
          </g>
        </g>
      </g>
    </g>
  </g>
</svg>
